# xmcd
#
# Track frame offsets: 
#        150
#        11935
#        24209
#        37747
#        51063
#        60887
#        72503
#        84616
#        95843
#        116126
#        127174
#        137518
#        150901
#        163445
#        171900
#        184344
#        198119
#        209014
#        222664
#        232745
#        247600
#        258715
#        271447
#        283164
#
# Disc length: 3924 seconds
#
# Revision: 1
# Processed by: cddbd v1.5.2PL0 Copyright (c) Steve Scherf et al.
# Submitted via: ExactAudioCopyFreeDBPlugin 1.0
#
DISCID=620f5218
DTITLE=Various Artist - Nothing But a House Party:  The Birth of the 
DTITLE=Philly Sound, 1967-71
DYEAR=2017
DGENRE=Soul
TTITLE0=The Show Stoppers - Ain't Nothing But A House Party (1967)
TTITLE1=The Delfonics - You've Been Untrue (1967)
TTITLE2=George Tindley - It's All Over But The Shouting (1969)
TTITLE3=Jerry Butler - Never Give You Up (1968)
TTITLE4=Honey and The Bees - Help Me (Get Over My Used To Be Lover) (197
TTITLE4=0)
TTITLE5=Executive Suite - Christine (1970)
TTITLE6=Cliff Nobles - Love Is All Right (1968)
TTITLE7=The Ambassadors - Ain't Got The Love Of One Girl (On My Mind) 
TTITLE7=(1969)
TTITLE8=Lou Jackson - Peace To You Brother (1971)
TTITLE9=Archie Bell and The Drells - My Balloon's Going Up (1969)
TTITLE10=Brenda and The Tabulations - That's The Price You Have To Pay (
TTITLE10=1969)
TTITLE11=The Moods - Rainmaker (1970)
TTITLE12=Moses Smith - Keep On Striving (1970)
TTITLE13=Sonny Ross - Piper Must Be Paid (1971)
TTITLE14=Barbara Mason - You Better Stop It (1969)
TTITLE15=Sunshine - Goin' Home To An Empty House (1969)
TTITLE16=The Intruders - Every Day Is A Holiday (1969)
TTITLE17=Freddie Scott - (You) Got What I Need (1968)
TTITLE18=Len Barry - Girl You're Too Young (1968)
TTITLE19=Oscar Weathers - Your Fool Still Loves You (1970)
TTITLE20=The Continental 4 - What You Gave Up (1971)
TTITLE21=Peaches and Herb - Let's Make A Promise (1968)
TTITLE22=Winfield Parker - I'm On My Way (1971)
TTITLE23=The Ethics - Standing In The Darkness (1970)
EXTD=
EXTT0=
EXTT1=
EXTT2=
EXTT3=
EXTT4=
EXTT5=
EXTT6=
EXTT7=
EXTT8=
EXTT9=
EXTT10=
EXTT11=
EXTT12=
EXTT13=
EXTT14=
EXTT15=
EXTT16=
EXTT17=
EXTT18=
EXTT19=
EXTT20=
EXTT21=
EXTT22=
EXTT23=
PLAYORDER=
